<svg width="16" height="16" viewBox="0 0 16 16" fill="none" xmlns="http://www.w3.org/2000/svg">
<rect width="16" height="16" rx="8" fill="#70B6F6" fill-opacity="0.12"/>
<path fill-rule="evenodd" clip-rule="evenodd" d="M8.52306 4.01822C8.39192 3.5602 7.78412 3.54601 7.63403 3.99747L6.83322 6.33333L4.474 6.33615C4.02937 6.33668 3.81472 7.01062 4.1967 7.29604L6.07171 8.69707L5.30449 11.0049C5.1543 11.4567 5.6373 11.8485 6.01044 11.5776L7.99664 10.1354L9.89128 11.5511C10.2585 11.8255 10.7599 11.4421 10.6116 10.9847L9.90612 8.8093C9.88454 8.74276 9.90747 8.66489 9.96795 8.62078L11.7948 7.28869C12.1704 7.01479 11.9957 6.32717 11.5316 6.32772L9.20045 6.33051L8.52306 4.01822Z" fill="#526ED3"/>
</svg>
